# xmcd
#
# Track frame offsets: 
#        150
#        21870
#        45049
#        63996
#        81903
#        105621
#        126764
#        151212
#        160944
#
# Disc length: 2639 seconds
#
# Revision: 2
# Processed by: cddbd v1.5.2PL0 Copyright (c) Steve Scherf et al.
# Submitted via: ExactAudioCopyFreeDBPlugin 1.0
#
DISCID=620a4d09
DTITLE=Dayton - Cutie Pie
DYEAR=1981
DGENRE=Funk
TTITLE0=Cutie Pie
TTITLE1=One Day Or Another
TTITLE2=You Lift Me
TTITLE3=Wanna Be Your Man
TTITLE4=Body Shaker
TTITLE5=Fool Was He
TTITLE6=Let Me Know
TTITLE7=Piece Of The Rock
TTITLE8=The Sound Of Music (Extended Remix)
EXTD=
EXTT0=
EXTT1=
EXTT2=
EXTT3=
EXTT4=
EXTT5=
EXTT6=
EXTT7=
EXTT8=
PLAYORDER=
